<svg id="Layer_1" data-name="Layer 1" xmlns="http://www.w3.org/2000/svg" viewBox="0 0 400.04 279.43"><defs><style>.cls-1{fill:#115a5a;}.cls-2{fill:#fff;}</style></defs><rect class="cls-1" x="-2.5" y="1.37" width="402.42" height="279.09"/><path class="cls-2" d="M197.71,84.11c-2.29-.09-3.11.56-3.11.56a2,2,0,0,0-.75,2c.13.64.25,1.83,3.44,1.87s3.18-1.63,3.22-2.36S200,84.19,197.71,84.11Zm-.1-6.6c-2.39-.09-3.25.58-3.25.58a2.17,2.17,0,0,0-.79,2.08c.13.67.27,1.91,3.61,2s3.32-1.71,3.37-2.47S200,77.59,197.61,77.51Zm8.1-1.85a3.77,3.77,0,0,0-2.32.42,1.55,1.55,0,0,0-.56,1.48c.1.48.19,1.36,2.57,1.39s2.37-1.21,2.4-1.75S207.42,75.73,205.71,75.66Zm76.23,111.53a15.3,15.3,0,0,1-5.63-5.76L259,140.33h-8.55s-10.37,31.38-15,43.06a6.36,6.36,0,0,1-2.81,3.55,7.27,7.27,0,0,1-1.72.49,6.38,6.38,0,0,0,0,.76h16.72a6.38,6.38,0,0,0,0-.76,3.57,3.57,0,0,1-2.43-1.07c-1.89-1.93-1-5.63-1-5.63l1.64-6.2h17a31.11,31.11,0,0,1,2.87,8.53c.13,2.44-2.15,3.84-2.95,4.26-.17,0-.31.08-.49.11,0,.08,0,.76,0,.76H283a6.38,6.38,0,0,0,0-.76A9,9,0,0,1,281.94,187.19Zm-35-16.91,6.83-21.93,7.61,21.93ZM205.64,65.68c0-.45-.32-1.23-1.76-1.28a3.07,3.07,0,0,0-1.94.35,1.28,1.28,0,0,0-.47,1.24c.08.4.16,1.14,2.15,1.16S205.61,66.13,205.64,65.68Zm1.13,17.52c0-.51-.36-1.41-2-1.47a3.62,3.62,0,0,0-2.22.4,1.46,1.46,0,0,0-.53,1.42c.09.45.18,1.3,2.46,1.33S206.74,83.72,206.77,83.2Zm-3.41-13a1.41,1.41,0,0,0-.53,1.38c.09.44.18,1.27,2.4,1.3s2.21-1.14,2.24-1.64-.36-1.38-1.95-1.44A3.49,3.49,0,0,0,203.36,70.21Zm-6-.16c2.69,0,2.67-1.3,2.71-1.88s-.43-1.58-2.36-1.65a4.37,4.37,0,0,0-2.61.45,1.6,1.6,0,0,0-.63,1.59C194.6,69.07,194.7,70,197.38,70.05Zm-4.91-5.3a3.07,3.07,0,0,0-1.94-.35c-1.43,0-1.78.83-1.75,1.28s0,1.5,2,1.47,2.08-.76,2.16-1.16A1.27,1.27,0,0,0,192.47,64.75Zm5-.86c2.23,0,2.22-1.14,2.25-1.65s-.36-1.38-2-1.44a3.45,3.45,0,0,0-2.17.4,1.42,1.42,0,0,0-.53,1.38C195.13,63,195.22,63.86,197.45,63.89Zm123.29,76.44v.85a2.46,2.46,0,0,1,2.15,2.11v31.8L295.18,140.8l-.34-.47-10.13,0v1.07s4.49-.13,5.18,3.21l-.18,40.43c.13,2.06-5,2.58-5,2.58v.53h15.81v-.49s-4.66-.71-5.16-3V154.92l25.41,33.27h7.75V143.63c.1-2.29,5.06-2.58,5.06-2.58v-.72ZM197.4,75.84c3,0,3-1.52,3-2.2s-.48-1.85-2.62-1.93a4.71,4.71,0,0,0-2.92.53,1.93,1.93,0,0,0-.7,1.86C194.29,74.69,194.41,75.8,197.4,75.84Zm-5.54,6.29a3.59,3.59,0,0,0-2.22-.4c-1.63.06-2,1-2,1.47s0,1.71,2.3,1.68,2.37-.88,2.46-1.33A1.46,1.46,0,0,0,191.86,82.13Zm-2.67-9.24c2.22,0,2.31-.86,2.39-1.3a1.42,1.42,0,0,0-.52-1.38,3.52,3.52,0,0,0-2.16-.4c-1.6.06-2,.94-2,1.44S187,72.91,189.19,72.89Zm2.39,4.67a1.53,1.53,0,0,0-.56-1.48,3.77,3.77,0,0,0-2.32-.42c-1.7.07-2.12,1-2.08,1.54S186.63,79,189,79,191.49,78,191.58,77.56ZM178.3,161.89c-8.91-5.81-13.22-8.83-11.28-13.67s9.62-4.33,14.75.74l1.48-5.64s-13.5-7.4-21.87-.79c-10.73,8.46-3.45,20.05,7.86,26.37,4.88,2.73,7.26,6.61,6.43,9.57-.87,3.15-5.26,5.27-10.08,4.33-5.7-1.14-7.35-4.84-7.35-4.84l-1.14-.18s-1.31,7.3-2.33,9.12c0,.23.85.57.85.57a5.27,5.27,0,0,1,4,0c2.16.91,14.52,3.89,21.59-1.93C189.69,178.59,188.32,168.45,178.3,161.89Zm-40.11,43.59h-5.72v-5.3h-1.8v12.45h1.8V207.1h5.72v5.53H140V200.18h-1.82ZM134.36,179c0-3,.06-6.81.06-6.81s-.51-2.53,4.4-11.18S149.94,143.3,150,143.26a8.67,8.67,0,0,1,4.48-2,7.18,7.18,0,0,0,0-.93H134s0,.84,0,.93a8.36,8.36,0,0,1,5.08,2.58s.42,1.32-1.67,6.14-6.49,13.7-6.49,13.7L119.42,146a7.93,7.93,0,0,1-.79-2.54,8.59,8.59,0,0,1,4.72-2.21c0-.09,0-.93,0-.93H102.87s0,.84,0,.93a9.55,9.55,0,0,1,3,1c.31.2,2,1.52,6.33,9,4.92,8.43,12,19.41,12.28,21.41a39.46,39.46,0,0,1,0,6.33s-.22,6.09-5.73,8.08c0,.07,0,1.11,0,1.11h21.5V187S134.8,184.68,134.36,179ZM121.6,200.07l-.51,0c-.23,0-.47,0-.72,0a7.06,7.06,0,0,0-4.87,1.69,6,6,0,0,0-2,4.64h0a6.17,6.17,0,0,0,2,4.76,6.49,6.49,0,0,0,4.56,1.69,10.37,10.37,0,0,0,1.47-.1,5.91,5.91,0,0,0,1.08-.26l.13,0-.08-1.69-.57.18-.33.09a7.52,7.52,0,0,1-1.51.13,4.71,4.71,0,0,1-3.42-1.3,4.6,4.6,0,0,1-1.36-3.43,4.49,4.49,0,0,1,1.34-3.43,5,5,0,0,1,3.61-1.26,7.23,7.23,0,0,1,1.4.12,5.91,5.91,0,0,1,.65.15h.28l.06-1.67-.14,0A9.05,9.05,0,0,0,121.6,200.07Zm53.81,0-.51,0c-.23,0-.47,0-.72,0a7.06,7.06,0,0,0-4.87,1.69,6,6,0,0,0-1.95,4.64h0a6.17,6.17,0,0,0,2,4.76,6.52,6.52,0,0,0,4.57,1.69,10.34,10.34,0,0,0,1.46-.1,6,6,0,0,0,1.09-.26l.12,0-.07-1.69-.58.18-.33.09a7.52,7.52,0,0,1-1.51.13,4.74,4.74,0,0,1-3.42-1.3,4.59,4.59,0,0,1-1.35-3.43,4.48,4.48,0,0,1,1.33-3.43,5,5,0,0,1,3.61-1.26,7.23,7.23,0,0,1,1.4.12,5.91,5.91,0,0,1,.65.15h.28l.06-1.67-.14,0A9.05,9.05,0,0,0,175.41,200.07ZM103,177.52c-1.11.85-3.8,6.29-3.8,6.29h-16a6.4,6.4,0,0,1-5-2.93V144.72a9.39,9.39,0,0,1,6.12-3.33,9.32,9.32,0,0,0,0-1.06H60.93s0,1,0,1.06a9.31,9.31,0,0,1,6.27,3.53v37.15c-.72,1.92-2.25,4.63-5.28,5.14a4.58,4.58,0,0,0,0,1h39.45a51.34,51.34,0,0,1,4.06-10.67A2.36,2.36,0,0,0,103,177.52ZM190.3,200a6.36,6.36,0,0,0-4.65,1.86,6.27,6.27,0,0,0-1.85,4.6,6.18,6.18,0,0,0,1.82,4.47,6,6,0,0,0,4.47,1.87,6.17,6.17,0,0,0,4.59-1.91,6.37,6.37,0,0,0,1.8-4.56h0a6.23,6.23,0,0,0-1.75-4.49A5.93,5.93,0,0,0,190.3,200Zm4.29,6.4a4.75,4.75,0,0,1-1.25,3.33,4.38,4.38,0,0,1-6.36,0,5,5,0,0,1,0-6.66,4.15,4.15,0,0,1,3.16-1.37,4.22,4.22,0,0,1,3.19,1.36,4.71,4.71,0,0,1,1.27,3.34ZM154.18,200a6.35,6.35,0,0,0-4.65,1.86,6.27,6.27,0,0,0-1.85,4.6A6.18,6.18,0,0,0,149.5,211a6,6,0,0,0,4.46,1.87,6.18,6.18,0,0,0,4.6-1.91,6.37,6.37,0,0,0,1.8-4.56h0a6.2,6.2,0,0,0-1.76-4.49A5.89,5.89,0,0,0,154.18,200Zm4.29,6.4a4.75,4.75,0,0,1-1.25,3.33,4.38,4.38,0,0,1-6.36,0,5,5,0,0,1,0-6.66,4.39,4.39,0,0,1,6.36,0,4.71,4.71,0,0,1,1.27,3.34ZM280,211.06l-3-3.89a2.79,2.79,0,0,0,.84-.43,3.51,3.51,0,0,0,.53-.4,3.27,3.27,0,0,0,.55-.63,3.59,3.59,0,0,0,.6-2.06,3.79,3.79,0,0,0-.23-1.33,3,3,0,0,0-.57-.94,3.14,3.14,0,0,0-1.36-.92,6.82,6.82,0,0,0-2.26-.33l-1.06,0-.87.06v12.41h1.76V207.5h.24l3.76,5.05.05.08h1.83l.18,0v-.25l0,0C280.75,212.06,280.43,211.65,280,211.06Zm-3.53-5.32a3,3,0,0,1-1.26.27h-.27v-4.22l.44,0c1.56,0,2.32.65,2.32,2h0a2.19,2.19,0,0,1-.39,1.32A2.27,2.27,0,0,1,276.46,205.74Zm-27.24,6.89H251V200.18h-1.81ZM233,201.79h3.59v10.84h1.81V201.79H242v-1.61h-9Zm-71.11-89.15c-1.29,1.43-6.38,8-3.79,19.69l.08.33.32.13A44.33,44.33,0,0,0,168.54,134a21.67,21.67,0,0,0,18.18-9.43c-8,8.47-17.75,8.31-23.09,7.38,11.23-1.82,18.69-7.4,22.83-12.45,1.36,3.48,4.23,7.72,10.21,8h.06l.34,0,.33,0h.07c6-.33,8.85-4.58,10.21-8.06,4.14,5,11.6,10.64,22.84,12.46-5.34.93-15.13,1.09-23.09-7.38A21.67,21.67,0,0,0,225.61,134a44.44,44.44,0,0,0,10.06-1.24l.32-.13.08-.33c2.53-11.45-2.27-18-3.7-19.59a24.7,24.7,0,0,0,14.78-13c3.87-7.7,5.26-14.34,3.52-18.49-1.17-2.77-3.88-3.36-7.56-4.5-4-1.24-5.71-3.24-7.4-4.7-2.15-1.86-4.18-3.61-10.28-4.05-4.73-.35-7.76,1-9.92,3.26a31.61,31.61,0,0,0-17.76-23l-.54-.24-.55.24a31.68,31.68,0,0,0-17.72,22.94c-2.15-2.24-5.17-3.5-9.82-3.16C163,68.43,161,70.18,158.83,72c-1.69,1.46-3.44,3.46-7.4,4.7-3.68,1.14-6.39,1.73-7.56,4.5-1.74,4.15-.35,10.79,3.52,18.49A24.72,24.72,0,0,0,161.87,112.64Zm.94.3a23.84,23.84,0,0,0,5,.87,33.59,33.59,0,0,0-8.28,14.13C158.7,119.7,161.64,114.59,162.81,112.94Zm-2.76,18.17c-.16-.74-.28-1.46-.38-2.16a43.83,43.83,0,0,1,10.4-15.16,5.21,5.21,0,0,0,1.36-.33c2.82-1.14,4.66-4.56,6.49-8.21a27.19,27.19,0,0,1,2.89-4.66c2.93-3.94,9.68-3.43,11-3.26l0,.19h0l-1-.1a9,9,0,0,0-9.7,6.27,9.32,9.32,0,0,0,.33,6.8h0c-7.52,6.83-19.17,18.59-21.23,20.67ZM201,93.92a5.53,5.53,0,0,0-7.4,0c-1.24-.33-6.3-2.11-8.73-9.65l-.54-1.7c-.63-2-1.23-3.87-1.93-5.62,1.45-10.8,7.15-19.25,14.81-22.66,7.71,3.43,13.44,12,14.85,22.88-.67,1.69-1.25,3.51-1.85,5.4-.17.56-.35,1.13-.54,1.7C207.29,91.69,202.35,93.55,201,93.92Zm0,4.14a3.72,3.72,0,1,1-3.72-3.71A3.73,3.73,0,0,1,201,98.06Zm-13.85,7.31a13.68,13.68,0,0,1,.76,1.68,3.9,3.9,0,0,1-.38,3.57,3.1,3.1,0,0,1-3,1.32,2.64,2.64,0,0,1-2.35-1.17c-1.16-1.66-.83-4.88-.29-6.87,1.36-4.13,5.48-5.43,7.63-5.66C186.51,100.93,186.2,103.46,187.18,105.37Zm10.33,20h-.2v0l-.24,0-.24,0v0h-.2c-7.85-.45-10-8.08-10.4-10.23,3.08.37,7-.55,6.62-4.61-.41-4.73.84-5.42,1.23-6.23a9.06,9.06,0,0,0,2.75.77v0l.24,0,.24,0v0a9.08,9.08,0,0,0,2.74-.77c.4.81,1.65,1.5,1.24,6.23-.36,4.06,3.53,5,6.62,4.61C207.51,117.32,205.35,125,197.51,125.4Zm33.93,6.41a43.42,43.42,0,0,1-23.31-13.6,18.44,18.44,0,0,0,.71-3.22l.07-.77-.64-.06c-1.3,0-5.76-.31-5.48-5.13a6.68,6.68,0,0,0-1.77-5.37l-.33-.5-.52.3a5.84,5.84,0,0,1-6.2,0l-.52-.3-.34.5a6.7,6.7,0,0,0-1.76,5.37c.28,4.82-4.18,5.13-5.48,5.13l-.64.06.07.77a18,18,0,0,0,.7,3.24,43.35,43.35,0,0,1-23.29,13.58,25.44,25.44,0,0,1-2.47-.64,246.4,246.4,0,0,0,22.09-19.41,4,4,0,0,0,2.58,1.14l.62,0a4.6,4.6,0,0,0,3.74-1.57,5,5,0,0,0,.75-4.57,11.5,11.5,0,0,0-.82-1.83c-1.08-2.11-1.18-4.63,2.57-7.21,0,.11,0,.21,0,.31a5.56,5.56,0,0,0,11.12,0s0-.06,0-.09c3.44,2.51,3.31,4.94,2.26,7a13.63,13.63,0,0,0-.82,1.83,5,5,0,0,0,.76,4.57,4.59,4.59,0,0,0,3.74,1.57l.62,0a4,4,0,0,0,2.47-1.06,249.6,249.6,0,0,0,22,19.33A24.3,24.3,0,0,1,231.44,131.81ZM204.8,98.24c2.15.23,6.27,1.53,7.63,5.66.55,2,.87,5.21-.29,6.87a2.63,2.63,0,0,1-2.34,1.17,3.12,3.12,0,0,1-3-1.32,3.87,3.87,0,0,1-.37-3.57,12.23,12.23,0,0,1,.75-1.68C208.12,103.46,207.81,100.93,204.8,98.24Zm29.3,32.87-.12,0c-2-2.07-13.6-13.72-21.11-20.57a9.29,9.29,0,0,0,.39-6.89,9,9,0,0,0-9.71-6.27l-.71.07,0-.17c1.48-.18,8.05-.6,10.92,3.27a27.19,27.19,0,0,1,2.89,4.66c1.83,3.65,3.67,7.07,6.49,8.21a4.63,4.63,0,0,0,.89.25A43.77,43.77,0,0,1,234.48,129C234.38,129.65,234.25,130.37,234.1,131.11Zm.48-3.17a33.49,33.49,0,0,0-8.26-14.11,24.14,24.14,0,0,0,5.08-.8C232.62,114.78,235.44,119.86,234.58,127.94Zm-8.46-57.33c5.68.41,6.39,1.24,8.46,3a19.79,19.79,0,0,0,7.9,4.23c3.3,1,5.74,2.36,6.76,4.78,1.56,3.73-.1,8.19-3.8,15.4-5.71,11.13-17,15.06-21.53,13.89-1.47-.38-4.07-3.58-5.83-7.24-2.34-4.83-5.48-7-8.34-7.9a31.78,31.78,0,0,1,14.37,5c7.36,4.77,13.46,4.3,13.74,4.31a40.07,40.07,0,0,1-13.43-5.38c-6.63-4.31-12.1-5.71-21.16-4.82,9.12-3,11.44-2.3,23.72-2.82a31.84,31.84,0,0,0,21.23-9.13,34.24,34.24,0,0,1-21.62,8.15c-9.63.24-13.79.32-19.1,1.38a40.7,40.7,0,0,0,9.15-6.6c5.11-5.11,11.48-9.71,18.26-10-5.83-.45-13.8,4-19.14,9.35a38.58,38.58,0,0,1-7.25,5.56A15,15,0,0,0,211.67,86q.27-.87.54-1.71C214.86,76,216.76,69.93,226.12,70.61Zm-28.91-20c5.55,2.62,15,9.93,17,22.25a18.91,18.91,0,0,0-1.52,2.78c-1.74-12-8.82-19.48-15.11-22.32l-.39-.17-.39.17c-6.26,2.83-13.29,10.22-15.08,22.12a18.14,18.14,0,0,0-1.53-2.71C182.27,60.49,191.68,53.22,197.21,50.61ZM145.3,82.66c1-2.42,3.46-3.75,6.76-4.78a19.79,19.79,0,0,0,7.9-4.23c2.07-1.8,2.78-2.63,8.46-3,9.36-.68,11.26,5.35,13.91,13.71l.54,1.71A15,15,0,0,0,186,91.74a38.58,38.58,0,0,1-7.25-5.56c-5.34-5.33-13.31-9.8-19.14-9.35,6.78.33,13.15,4.93,18.26,10a40.92,40.92,0,0,0,9.15,6.6c-5.31-1.06-9.47-1.14-19.1-1.38a34.24,34.24,0,0,1-21.62-8.15,31.84,31.84,0,0,0,21.23,9.13c12.28.52,14.6-.22,23.73,2.82-9.06-.89-14.54.51-21.17,4.82a40.07,40.07,0,0,1-13.43,5.38c.28,0,6.38.46,13.74-4.31a31.78,31.78,0,0,1,14.37-5c-2.86.9-6,3.07-8.34,7.9-1.76,3.66-4.36,6.86-5.83,7.24-4.54,1.17-15.82-2.76-21.53-13.89C145.4,90.85,143.74,86.39,145.3,82.66ZM261.19,207.08h3.72v-1.6h-3.72v-3.67h4v-1.63h-5.84v12.45h6V211h-4.2Zm-30.87-28.81c-1,.79-3.54,5.85-3.54,5.85H211.89a6,6,0,0,1-4.65-2.73v-37a8.69,8.69,0,0,1,5.69-3.1,8.13,8.13,0,0,0,0-1H191.19s0,.89,0,1A8.62,8.62,0,0,1,197,144.6v37.89c-.67,1.79-2.09,4.31-4.91,4.79a4,4,0,0,0,0,.91H228.8a47.59,47.59,0,0,1,3.78-9.92A2.16,2.16,0,0,0,230.32,178.27ZM206,200.18h-1.8v12.45h6V211H206Zm16-.2h-.43l-3.55,8.5-.51,1.23-1.22,2.92h1.89l.17-.46a.55.55,0,0,0,0-.13l1.15-2.81h4.24l1.2,3,.12.37h2l-5-12.54Zm-1.82,7.68,1.25-3.16c.12-.29.21-.54.29-.76.07.22.16.47.27.76l1.2,3.16Z"/></svg>