<svg id="Layer_1" data-name="Layer 1" xmlns="http://www.w3.org/2000/svg" viewBox="0 0 400.04 279.43"><defs><style>.cls-1{fill:#381808;}</style></defs><path class="cls-1" d="M89,184.51c-1.27,1-4.36,7.22-4.36,7.22H66.29a7.36,7.36,0,0,1-5.75-3.36V146.85a10.8,10.8,0,0,1,7-3.83c0-.12,0-1.21,0-1.21H40.73s0,1.09,0,1.21a10.69,10.69,0,0,1,7.2,4v42.65c-.83,2.21-2.59,5.32-6.07,5.91a5.33,5.33,0,0,0,0,1.13H87.15a59.32,59.32,0,0,1,4.67-12.25A2.67,2.67,0,0,0,89,184.51Zm86.45-17.95c-10.22-6.68-15.17-10.14-12.95-15.7s11.06-5,16.94.85l1.7-6.47s-15.5-8.5-25.11-.92c-12.32,9.72-4,23,9,30.29,5.61,3.13,8.34,7.59,7.39,11-1,3.61-6,6.05-11.57,5-6.54-1.31-8.44-5.56-8.44-5.56l-1.31-.2s-1.5,8.37-2.68,10.47c.06.26,1,.65,1,.65a6.06,6.06,0,0,1,4.64,0c2.49,1,16.68,4.46,24.79-2.22C188.57,185.73,187,174.08,175.48,166.56Zm-38.57-24.75H124.58s0,.95,0,1.06a9.6,9.6,0,0,1,5.83,3s.49,1.51-1.91,7-7.45,15.73-7.45,15.73l-13.17-20.28a9.27,9.27,0,0,1-.9-2.92,9.79,9.79,0,0,1,5.41-2.54,9.31,9.31,0,0,0,0-1.06H88.88a9.31,9.31,0,0,0,0,1.06A10.47,10.47,0,0,1,92.31,144c.36.22,2.24,1.73,7.27,10.36,5.65,9.69,13.73,22.29,14.1,24.59a44.88,44.88,0,0,1,0,7.26s-.25,7-6.58,9.28a12.67,12.67,0,0,1,0,1.28h24.7v-1.37s-6.21-2.67-6.71-9.19c0-3.41.06-7.82.06-7.82s-.58-2.9,5.05-12.83,12.77-20.34,12.8-20.38a9.86,9.86,0,0,1,5.15-2.3c0-.11,0-1.06,0-1.06Zm157.58,53.8A17.52,17.52,0,0,1,288,189l-19.92-47.19H258.3s-11.91,36-17.18,49.43a7.38,7.38,0,0,1-3.23,4.09,8.46,8.46,0,0,1-2,.55c0,.09,0,.88,0,.88h19.21a8.56,8.56,0,0,0,0-.88,4,4,0,0,1-2.79-1.23c-2.17-2.21-1.14-6.46-1.14-6.46l1.88-7.11H272.6a35.82,35.82,0,0,1,3.3,9.78c.15,2.8-2.47,4.41-3.39,4.89-.19,0-.35.1-.56.13a8.56,8.56,0,0,0,0,.88h23.71a8.56,8.56,0,0,0,0-.88A9.16,9.16,0,0,1,294.49,195.61Zm-40.2-19.42L262.14,151l8.73,25.18Zm-19.07,9.17c-1.19.91-4.06,6.72-4.06,6.72h-17.1a6.84,6.84,0,0,1-5.34-3.13V146.5a10,10,0,0,1,6.54-3.56c0-.12,0-1.13,0-1.13h-25a10.58,10.58,0,0,0,0,1.13A9.87,9.87,0,0,1,197,146.7v43.52c-.76,2.05-2.4,4.94-5.64,5.49a5.26,5.26,0,0,0,0,1h42.13a54.92,54.92,0,0,1,4.34-11.4A2.49,2.49,0,0,0,235.22,185.36ZM339,141.81v1a2.83,2.83,0,0,1,2.48,2.42v36.51l-31.82-39.37-.39-.53H297.67v1.23s5.16-.15,5.95,3.69l-.21,46.42c.14,2.37-5.69,3-5.69,3v.6h18.15v-.56s-5.36-.82-5.93-3.44V158.56l29.18,38.2H348V145.6c.12-2.64,5.82-3,5.82-3v-.82Z"/><path class="cls-1" d="M109,212.25a8.46,8.46,0,0,1,1.61.14,7,7,0,0,1,.75.18h.31l.08-1.91-.17,0c-.33-.08-.74-.15-1.23-.22l-.59,0c-.27,0-.54,0-.83,0a8.1,8.1,0,0,0-5.59,2,6.86,6.86,0,0,0-2.23,5.32v0a7.06,7.06,0,0,0,2.24,5.46,7.46,7.46,0,0,0,5.24,1.94,12,12,0,0,0,1.69-.11,7.53,7.53,0,0,0,1.24-.3l.15,0-.09-1.94-.66.21a2.15,2.15,0,0,1-.38.1,9,9,0,0,1-1.74.15,5.42,5.42,0,0,1-3.92-1.49,5.29,5.29,0,0,1-1.56-3.93,5.19,5.19,0,0,1,1.54-4A5.78,5.78,0,0,1,109,212.25Z"/><polygon class="cls-1" points="129.44 210.52 129.44 216.6 122.87 216.6 122.87 210.52 120.8 210.52 120.8 224.81 122.87 224.81 122.87 218.46 129.44 218.46 129.44 224.81 131.52 224.81 131.52 210.52 129.44 210.52"/><path class="cls-1" d="M152.87,212.44a6.77,6.77,0,0,0-5.07-2.1,7.29,7.29,0,0,0-5.35,2.14,7.2,7.2,0,0,0-2.12,5.28,7.05,7.05,0,0,0,2.09,5.12,6.91,6.91,0,0,0,5.13,2.15,7.07,7.07,0,0,0,5.27-2.19,7.29,7.29,0,0,0,2.07-5.23v0A7.13,7.13,0,0,0,152.87,212.44Zm-.15,5.22v0a5.43,5.43,0,0,1-1.44,3.83,5,5,0,0,1-7.3,0,5.36,5.36,0,0,1-1.47-3.8,5.44,5.44,0,0,1,1.45-3.84,4.82,4.82,0,0,1,3.64-1.57,4.87,4.87,0,0,1,3.66,1.56A5.4,5.4,0,0,1,152.72,217.66Z"/><path class="cls-1" d="M170.83,212.25a8.46,8.46,0,0,1,1.61.14,6.2,6.2,0,0,1,.74.18h.32l.07-1.91-.16,0c-.33-.08-.74-.15-1.23-.22l-.6,0c-.26,0-.54,0-.82,0a8.12,8.12,0,0,0-5.6,2,6.86,6.86,0,0,0-2.23,5.32v0a7.07,7.07,0,0,0,2.25,5.46,7.45,7.45,0,0,0,5.24,1.94,11.85,11.85,0,0,0,1.68-.11,7.42,7.42,0,0,0,1.25-.3l.15,0-.09-1.94-.66.21a2.15,2.15,0,0,1-.38.1,9,9,0,0,1-1.74.15,5.43,5.43,0,0,1-3.93-1.49,5.28,5.28,0,0,1-1.55-3.93,5.18,5.18,0,0,1,1.53-4A5.81,5.81,0,0,1,170.83,212.25Z"/><path class="cls-1" d="M194.35,212.44a6.79,6.79,0,0,0-5.08-2.1,7.28,7.28,0,0,0-5.34,2.14,7.21,7.21,0,0,0-2.13,5.28,7.05,7.05,0,0,0,2.09,5.12A6.93,6.93,0,0,0,189,225a7.08,7.08,0,0,0,5.28-2.19,7.28,7.28,0,0,0,2.06-5.23v0A7.16,7.16,0,0,0,194.35,212.44Zm-.15,5.22v0a5.47,5.47,0,0,1-1.44,3.83,5,5,0,0,1-7.3,0,5.7,5.7,0,0,1,0-7.64,5,5,0,0,1,7.29,0A5.41,5.41,0,0,1,194.2,217.66Z"/><polygon class="cls-1" points="207.26 222.92 207.26 210.52 205.19 210.52 205.19 224.81 212.04 224.81 212.04 222.92 207.26 222.92"/><path class="cls-1" d="M225.66,210.42l0-.13h-.49L221,220.05l-.59,1.42-1.4,3.34h2.17l.2-.52a.43.43,0,0,0,.05-.15l1.33-3.23h4.86l1.38,3.48.14.42h2.28Zm1.32,8.69h-3.46l1.44-3.63c.13-.33.23-.62.33-.87.08.25.18.54.31.87Z"/><polygon class="cls-1" points="238.27 210.52 238.27 212.38 242.4 212.38 242.4 224.81 244.47 224.81 244.47 212.38 248.6 212.38 248.6 210.52 238.27 210.52"/><rect class="cls-1" x="256.92" y="210.52" width="2.07" height="14.29"/><polygon class="cls-1" points="270.66 222.92 270.66 218.45 274.94 218.45 274.94 216.6 270.66 216.6 270.66 212.39 275.29 212.39 275.29 210.52 268.59 210.52 268.59 224.81 275.48 224.81 275.48 222.92 270.66 222.92"/><path class="cls-1" d="M293.35,224.43c-.23-.26-.6-.74-1.1-1.41l-3.43-4.47a3.48,3.48,0,0,0,1-.49,4.71,4.71,0,0,0,.61-.47,3.88,3.88,0,0,0,.63-.72,4.41,4.41,0,0,0,.42-3.89,3.61,3.61,0,0,0-1.46-1.77,3.21,3.21,0,0,0-.75-.36,7.67,7.67,0,0,0-2.59-.39c-.34,0-.75,0-1.22,0l-1,.07v14.24h2v-5.89h.27l4.32,5.81.06.08h2.1l.21,0v-.29Zm-4.19-8.3a2.54,2.54,0,0,1-1,.78,3.44,3.44,0,0,1-1.44.3h-.31v-4.85h.5c1.8,0,2.67.74,2.67,2.27h0A2.48,2.48,0,0,1,289.16,216.13Z"/><path class="cls-1" d="M195.32,50.94a4,4,0,0,1,2.49-.45c1.84.07,2.28,1.07,2.25,1.65s0,1.93-2.58,1.89-2.67-1-2.77-1.5A1.65,1.65,0,0,1,195.32,50.94Z"/><path class="cls-1" d="M202.63,55a3.58,3.58,0,0,1,2.23-.41c1.65.07,2,1,2,1.48s0,1.72-2.31,1.69-2.39-.88-2.48-1.34A1.49,1.49,0,0,1,202.63,55Z"/><path class="cls-1" d="M204.26,61.29a4,4,0,0,1,2.48-.45c1.83.06,2.27,1.07,2.24,1.64s0,1.92-2.57,1.88-2.65-1-2.75-1.49A1.61,1.61,0,0,1,204.26,61.29Z"/><path class="cls-1" d="M203.34,75a4.1,4.1,0,0,1,2.54-.46c1.88.07,2.34,1.1,2.3,1.69s0,2-2.63,1.93-2.73-1-2.83-1.53A1.67,1.67,0,0,1,203.34,75Z"/><path class="cls-1" d="M204.3,68a4.33,4.33,0,0,1,2.66-.48c2,.07,2.44,1.15,2.4,1.76s0,2-2.75,2-2.84-1-3-1.6A1.76,1.76,0,0,1,204.3,68Z"/><path class="cls-1" d="M191.76,55a3.55,3.55,0,0,0-2.23-.41c-1.64.07-2,1-2,1.48s0,1.72,2.31,1.69,2.38-.88,2.47-1.34A1.45,1.45,0,0,0,191.76,55Z"/><path class="cls-1" d="M190.14,61.29a4,4,0,0,0-2.48-.45c-1.83.06-2.28,1.07-2.24,1.64s0,1.92,2.57,1.88,2.65-1,2.75-1.49A1.65,1.65,0,0,0,190.14,61.29Z"/><path class="cls-1" d="M191.06,75a4.12,4.12,0,0,0-2.55-.46c-1.88.07-2.33,1.1-2.3,1.69s0,2,2.64,1.93,2.72-1,2.83-1.53A1.69,1.69,0,0,0,191.06,75Z"/><path class="cls-1" d="M190.09,68a4.27,4.27,0,0,0-2.65-.48c-2,.07-2.44,1.15-2.4,1.76s0,2,2.75,2,2.84-1,3-1.6A1.77,1.77,0,0,0,190.09,68Z"/><path class="cls-1" d="M194.8,57.57a5.06,5.06,0,0,1,3-.51c2.21.07,2.74,1.22,2.7,1.89s0,2.2-3.1,2.16-3.2-1.13-3.32-1.72A1.84,1.84,0,0,1,194.8,57.57Z"/><path class="cls-1" d="M193.93,70.34s1-.77,3.74-.67,3.42,1.61,3.36,2.47S201,75,197.17,75s-4-1.48-4.15-2.24A2.48,2.48,0,0,1,193.93,70.34Z"/><path class="cls-1" d="M194.52,63.62s.88-.7,3.34-.61,3.06,1.44,3,2.22,0,2.57-3.46,2.53-3.57-1.32-3.71-2A2.2,2.2,0,0,1,194.52,63.62Z"/><path class="cls-1" d="M194.21,77.89s.93-.74,3.56-.65S201,78.78,201,79.61s0,2.75-3.69,2.7-3.81-1.41-4-2.14A2.34,2.34,0,0,1,194.21,77.89Z"/><path class="cls-1" d="M229.68,111.4a7.31,7.31,0,0,1-2.74-.45c-3.23-1.31-5.35-5.24-7.46-9.42a30.28,30.28,0,0,0-3.31-5.36c-3.67-4.94-12.62-3.78-12.9-3.7v-.75c.08,0,11.59-3.88,17.9,9.18,2,4.21,5,7.88,6.7,8.32,5.22,1.35,18.17-3.17,24.72-16,4.25-8.28,6.16-13.41,4.36-17.69-1.17-2.77-4-4.3-7.76-5.48a22.59,22.59,0,0,1-9.07-4.87c-2.38-2.05-3.19-3-9.72-3.49-10.74-.77-12.93,6.16-16,15.75-.21.65-.41,1.3-.63,2-3.43,10.65-11.19,10.12-11.49,10.16l-1.15-1c.25,0,7.22-1.44,10.35-11.15.21-.66.42-1.31.62-2,3-9.46,5.6-17.63,17.47-16.76,7,.5,9.34,2.52,11.81,4.66,1.94,1.67,3.94,4,8.5,5.39,4.22,1.31,7.33,2,8.67,5.17,2,4.77.41,12.38-4,21.22C248,108.29,236.43,111.4,229.68,111.4Z"/><path class="cls-1" d="M197.32,99.65a6.38,6.38,0,1,1,6.38-6.38A6.39,6.39,0,0,1,197.32,99.65Zm0-10.65a4.27,4.27,0,1,0,4.26,4.27A4.27,4.27,0,0,0,197.32,89Z"/><path class="cls-1" d="M183.07,110.31a4.72,4.72,0,0,1-3.7-2.2c-1.78-2.56-1.37-6.42-.71-8.38,2.85-8.38,11.06-7.21,11.15-7.2l1.15.12.11.18c-4.44,3-4.31,5.92-3.06,8.37a15.69,15.69,0,0,1,.94,2.09,5.76,5.76,0,0,1-.87,5.24,5.26,5.26,0,0,1-4.3,1.81ZM179.61,100c-.62,2.29-1,6,.33,7.89a3.08,3.08,0,0,0,2.7,1.35,3.6,3.6,0,0,0,3.48-1.52,4.43,4.43,0,0,0,.43-4.1,13.56,13.56,0,0,0-.87-1.93c-1.12-2.19-.77-5.1,2.69-8.19C185.91,93.74,181.18,95.23,179.61,100Z"/><path class="cls-1" d="M210.51,110.34a5.26,5.26,0,0,1-4.3-1.81,5.76,5.76,0,0,1-.87-5.24,15.69,15.69,0,0,1,.94-2.09c1.26-2.45,1.38-5.37-3.06-8.37l.11-.18,1.15-.12c.09,0,8.3-1.18,11.15,7.2.66,2,1.08,5.82-.71,8.38a4.72,4.72,0,0,1-3.7,2.2Zm-4.59-16.87c3.46,3.09,3.81,6,2.69,8.19a13.56,13.56,0,0,0-.87,1.93,4.43,4.43,0,0,0,.43,4.1,3.6,3.6,0,0,0,3.48,1.52,3.08,3.08,0,0,0,2.7-1.35c1.33-1.91,1-5.6.33-7.89C213.11,95.23,208.38,93.74,205.92,93.47Z"/><path class="cls-1" d="M203,90.91l.39-1.35c.09,0,8.84-3.62,15.15-9.93,6.13-6.13,15.28-11.25,22-10.74h0c-7.78.38-15.09,5.66-21,11.53C213,86.92,203.34,90.74,203,90.91Z"/><path class="cls-1" d="M203.14,91.12l-.83-1.5c10.33-2.8,13.93-2.85,28.63-3.2a39.41,39.41,0,0,0,24.82-9.36h0a36.57,36.57,0,0,1-24.38,10.48C216.84,88.15,214.46,87.23,203.14,91.12Z"/><path class="cls-1" d="M243.86,102.49c-.32,0-7.32.53-15.77-4.95-7.66-5-16-6.41-24.83-5.82l-.43-.81c11.2-1.3,17.69.25,25.61,5.41a46.12,46.12,0,0,0,15.42,6.17Z"/><path class="cls-1" d="M164.87,111.4a7.29,7.29,0,0,0,2.73-.45c3.23-1.31,5.35-5.24,7.46-9.42a30.28,30.28,0,0,1,3.31-5.36c3.67-4.94,12.62-3.78,12.9-3.7v-.75c-.08,0-11.59-3.88-17.9,9.18-2,4.21-5,7.88-6.7,8.32-5.22,1.35-18.16-3.17-24.72-16-4.25-8.28-6.15-13.41-4.36-17.69,1.17-2.77,4-4.3,7.77-5.48a22.61,22.61,0,0,0,9.06-4.87c2.38-2.05,3.19-3,9.72-3.49,10.74-.77,12.93,6.16,16,15.75.21.65.42,1.3.63,2,3.43,10.65,11.2,10.12,11.49,10.16l1.15-1c-.25,0-7.22-1.44-10.35-11.15-.21-.66-.42-1.31-.62-2-3-9.46-5.6-17.63-17.47-16.76-7,.5-9.34,2.52-11.81,4.66-1.94,1.67-3.94,4-8.5,5.39-4.22,1.31-7.33,2-8.67,5.17-2,4.77-.41,12.38,4,21.22C146.58,108.29,158.11,111.4,164.87,111.4Z"/><path class="cls-1" d="M191.58,90.91l-.39-1.35c-.09,0-8.84-3.62-15.15-9.93-6.13-6.13-15.28-11.25-22-10.74h0c7.78.38,15.09,5.66,21,11.53C181.53,86.92,191.2,90.74,191.58,90.91Z"/><path class="cls-1" d="M191.4,91.12l.83-1.5c-10.33-2.8-13.93-2.85-28.63-3.2a39.41,39.41,0,0,1-24.82-9.36h0a36.57,36.57,0,0,0,24.38,10.48C177.7,88.15,180.08,87.23,191.4,91.12Z"/><path class="cls-1" d="M150.68,102.49c.32,0,7.32.53,15.77-4.95,7.66-5,16-6.41,24.83-5.82l.43-.81c-11.2-1.3-17.69.25-25.61,5.41a46.12,46.12,0,0,1-15.42,6.17Z"/><path class="cls-1" d="M164.29,134.57a24.87,24.87,0,0,0,20.86-10.83h0c-12.11,12.89-27.92,8.37-30.62,7.48-2.95-14,3.65-21.5,3.71-21.56H157c-.29.28-8,7.89-4.68,23l.08.39.37.14A50.44,50.44,0,0,0,164.29,134.57Z"/><path class="cls-1" d="M184.58,116.15l.57,1.42c-5,6.26-14.48,13.37-29.1,15l-.23-.27A48.71,48.71,0,0,0,184.58,116.15Z"/><path class="cls-1" d="M180.43,108.69c-5.6,5.53-17,16.2-26.13,22.94,0,0,15.25-15.47,24.74-24.1C179.19,107.87,180.24,108.35,180.43,108.69Z"/><path class="cls-1" d="M164.51,110.34c.71,0,2,0,2.58,0a48.85,48.85,0,0,0-13.55,19.95l0-.82A38.08,38.08,0,0,1,164.51,110.34Z"/><path class="cls-1" d="M229.81,134.57a24.87,24.87,0,0,1-20.87-10.83h0c12.11,12.89,27.92,8.37,30.62,7.48,2.95-14-3.65-21.5-3.71-21.56h1.28c.29.28,8,7.89,4.68,23l-.08.39-.37.14A50.41,50.41,0,0,1,229.81,134.57Z"/><path class="cls-1" d="M209.51,116.15l-.57,1.42c5,6.26,14.48,13.37,29.1,15l.23-.27A48.71,48.71,0,0,1,209.51,116.15Z"/><path class="cls-1" d="M213.66,108.69c5.6,5.53,17,16.2,26.13,22.94,0,0-15.25-15.47-24.74-24.1C214.9,107.87,213.85,108.35,213.66,108.69Z"/><path class="cls-1" d="M229.58,110.34c-.71,0-2,0-2.58,0a48.85,48.85,0,0,1,13.55,19.95l0-.82A38.08,38.08,0,0,0,229.58,110.34Z"/><path class="cls-1" d="M197.32,124.6c-.27,0-.52.05-.79.06-9-.51-11.48-9.28-11.94-11.75,3.54.42,8-.63,7.6-5.29-.47-5.43,1-6.22,1.42-7.15a10,10,0,0,0,3.71.93v-.9a7.12,7.12,0,0,1-3.84-1l-.6-.35-.38.58a7.68,7.68,0,0,0-2,6.17c.32,5.53-4.8,5.88-6.29,5.88l-.74.07.08.88c0,.13,1.36,13.82,13.06,14.46h.07c.23,0,.44,0,.67-.06Z"/><path class="cls-1" d="M196.76,124.6c.26,0,.52.05.78.06,9-.51,11.49-9.28,12-11.75-3.55.42-8-.63-7.61-5.29.47-5.43-1-6.22-1.42-7.15a9.9,9.9,0,0,1-3.7.93v-.9a7.14,7.14,0,0,0,3.84-1l.6-.35.38.58a7.66,7.66,0,0,1,2,6.17c-.32,5.53,4.81,5.88,6.3,5.88l.73.07-.08.88c0,.13-1.36,13.82-13.05,14.46h-.08c-.23,0-.44,0-.66-.06Z"/><path class="cls-1" d="M197.65,41.9c7.88,3.56,16.87,13.41,17.75,29.51a16.05,16.05,0,0,1-.21,3.35c-.86,1-2.07,2.52-2.1,2.6s.86-1.5.34-1.18c.73-2,1.25-1.71,1.1-4.07C213.6,58.25,206.7,47.26,197.2,43V41.7Z"/><path class="cls-1" d="M196.75,41.9c-7.61,3.44-16.24,12.77-17.62,27.91.29.53.55,1.06.81,1.6C181,57.89,187.85,47.19,197.2,43V41.7Z"/><path class="cls-1" d="M196.57,36a36.35,36.35,0,0,0-20.71,28.5c.42.61.93,1.37,1.48,2.22,1.38-15.61,13.13-24.78,19.86-28v-3Z"/><path class="cls-1" d="M218.63,65.25A36.37,36.37,0,0,0,197.82,36l-.62-.27v3c7,3.29,19.25,13,20,29.53Z"/></svg>