<svg id="Layer_1" data-name="Layer 1" xmlns="http://www.w3.org/2000/svg" xmlns:xlink="http://www.w3.org/1999/xlink" viewBox="0 0 400.04 279.43"><defs><style>.cls-1{fill:url(#linear-gradient);}</style><linearGradient id="linear-gradient" x1="40.71" y1="130.4" x2="353.83" y2="130.4" gradientUnits="userSpaceOnUse"><stop offset="0" stop-color="#dc8567"/><stop offset="0.51" stop-color="#ffba8e"/><stop offset="1" stop-color="#dc8567"/></linearGradient></defs><path class="cls-1" d="M208.18,76.21c0-.59-.42-1.62-2.3-1.69a4.1,4.1,0,0,0-2.54.46,1.67,1.67,0,0,0-.62,1.63c.1.52.21,1.49,2.83,1.53S208.15,76.8,208.18,76.21ZM188,64.36c2.55,0,2.65-1,2.75-1.49a1.65,1.65,0,0,0-.6-1.58,4,4,0,0,0-2.48-.45c-1.83.06-2.28,1.07-2.24,1.64S185.44,64.4,188,64.36Zm2.75,5.37a1.77,1.77,0,0,0-.65-1.7,4.27,4.27,0,0,0-2.65-.48c-2,.07-2.44,1.15-2.4,1.76s0,2,2.75,2S190.63,70.28,190.74,69.73Zm.32,5.25a4.12,4.12,0,0,0-2.55-.46c-1.88.07-2.33,1.1-2.3,1.69s0,2,2.64,1.93,2.72-1,2.83-1.53A1.69,1.69,0,0,0,191.06,75Zm6.36-7.22c3.43,0,3.41-1.76,3.46-2.53s-.55-2.12-3-2.22-3.34.61-3.34.61a2.2,2.2,0,0,0-.81,2.13C193.85,66.44,194,67.71,197.42,67.76Zm9.46-11.67c0-.51-.37-1.41-2-1.48a3.58,3.58,0,0,0-2.23.41,1.49,1.49,0,0,0-.54,1.42c.09.46.18,1.31,2.48,1.34S206.84,56.61,206.88,56.09ZM197.48,54c2.56,0,2.54-1.31,2.58-1.89s-.41-1.58-2.25-1.65a4,4,0,0,0-2.49.45,1.65,1.65,0,0,0-.61,1.59C194.81,53,194.91,54,197.48,54Zm-.08,7.08c3.08,0,3.06-1.5,3.1-2.16s-.49-1.82-2.7-1.89a5.06,5.06,0,0,0-3,.51,1.84,1.84,0,0,0-.72,1.82C194.2,60,194.32,61.07,197.4,61.11ZM207,67.55a4.33,4.33,0,0,0-2.66.48,1.76,1.76,0,0,0-.64,1.7c.11.55.21,1.56,3,1.6s2.71-1.4,2.75-2S208.92,67.62,207,67.55Zm-2.7-6.26a1.61,1.61,0,0,0-.6,1.58c.1.51.2,1.46,2.75,1.49s2.54-1.3,2.57-1.88-.41-1.58-2.24-1.64A4,4,0,0,0,204.26,61.29Zm-6.59,8.38c-2.76-.1-3.74.67-3.74.67a2.48,2.48,0,0,0-.91,2.39c.16.76.31,2.19,4.15,2.24S201,73,201,72.14,200.42,69.77,197.67,69.67Zm.1,7.57c-2.63-.09-3.56.65-3.56.65a2.34,2.34,0,0,0-.87,2.28c.15.73.29,2.09,4,2.14s3.64-1.87,3.69-2.7S200.4,77.34,197.77,77.24Zm-6-22.22a3.55,3.55,0,0,0-2.23-.41c-1.64.07-2,1-2,1.48s0,1.72,2.31,1.69,2.38-.88,2.47-1.34A1.45,1.45,0,0,0,191.76,55ZM110.39,210.39l-.59,0c-.27,0-.54,0-.83,0a8.1,8.1,0,0,0-5.59,2,6.86,6.86,0,0,0-2.23,5.32v0a7.06,7.06,0,0,0,2.24,5.46,7.46,7.46,0,0,0,5.24,1.94,12,12,0,0,0,1.69-.11,7.53,7.53,0,0,0,1.24-.3l.15,0-.09-1.94-.66.21a2.15,2.15,0,0,1-.38.1,9,9,0,0,1-1.74.15,5.42,5.42,0,0,1-3.92-1.49,5.29,5.29,0,0,1-1.56-3.93,5.19,5.19,0,0,1,1.54-4,5.78,5.78,0,0,1,4.14-1.45,8.46,8.46,0,0,1,1.61.14,7,7,0,0,1,.75.18h.31l.08-1.91-.17,0C111.29,210.53,110.88,210.46,110.39,210.39Zm127.88,2h4.13v12.44h2.07V212.37h4.13v-1.85H238.27Zm32.39,6.08h4.27V216.6h-4.27v-4.21h4.63v-1.87h-6.7v14.29h6.89v-1.89h-4.82Zm-13.74,6.36H259V210.52h-2.07ZM156.61,110c-1.51,1.69-7.3,9.18-4.33,22.59l.08.39.37.14a50.44,50.44,0,0,0,11.56,1.43,24.87,24.87,0,0,0,20.86-10.83c-9.13,9.73-20.37,9.54-26.5,8.48,12.89-2.09,21.45-8.51,26.21-14.3,1.56,4,4.85,8.86,11.72,9.24h.07l.39,0,.38,0h.08c6.87-.38,10.17-5.26,11.72-9.25,4.75,5.8,13.32,12.21,26.22,14.31-6.12,1.06-17.37,1.25-26.5-8.48a24.87,24.87,0,0,0,20.87,10.83,50.41,50.41,0,0,0,11.55-1.43l.37-.14.08-.39c2.91-13.13-2.58-20.59-4.24-22.48,5.93-1.87,12.56-6.16,17-14.95s6-16.45,4-21.22c-1.34-3.19-4.45-3.86-8.67-5.17-4.56-1.42-6.56-3.72-8.5-5.39-2.47-2.14-4.8-4.16-11.81-4.66-5.42-.4-8.9,1.11-11.38,3.74A36.35,36.35,0,0,0,197.82,36l-.62-.27-.63.27a36.34,36.34,0,0,0-20.35,26.35c-2.47-2.58-5.93-4-11.28-3.64-7,.5-9.34,2.52-11.81,4.66-1.94,1.67-3.94,4-8.5,5.39-4.22,1.31-7.33,2-8.67,5.17-2,4.77-.41,12.38,4,21.22C144.32,103.79,150.78,108.09,156.61,110Zm1.09.34a27.55,27.55,0,0,0,5.77,1A38.49,38.49,0,0,0,154,127.58C153,118.12,156.35,112.26,157.7,110.36Zm-3.17,20.86c-.18-.85-.32-1.68-.43-2.48A50.14,50.14,0,0,1,166,111.33a5.91,5.91,0,0,0,1.58-.38c3.23-1.31,5.35-5.24,7.46-9.42a30.28,30.28,0,0,1,3.31-5.36c3.36-4.52,11.12-3.93,12.63-3.74a1.66,1.66,0,0,0,0,.22h0l-1.15-.12c-.09,0-8.3-1.18-11.15,7.2-.62,1.82-1,5.27.39,7.81h0c-8.62,7.84-22,21.34-24.37,23.73Zm47-42.7a6.33,6.33,0,0,0-8.49,0c-1.42-.37-7.24-2.42-10-11.07-.21-.66-.42-1.31-.62-2-.72-2.26-1.41-4.44-2.22-6.45,1.67-12.4,8.22-22.11,17-26,8.85,3.94,15.44,13.75,17.05,26.27-.76,1.94-1.43,4-2.12,6.2-.2.65-.41,1.3-.62,2C208.77,86,203.1,88.09,201.55,88.52Zm0,4.75A4.27,4.27,0,1,1,197.32,89,4.27,4.27,0,0,1,201.58,93.27Zm-15.9,8.39a13.56,13.56,0,0,1,.87,1.93,4.43,4.43,0,0,1-.43,4.1,3.6,3.6,0,0,1-3.48,1.52,3.08,3.08,0,0,1-2.7-1.35c-1.33-1.91-.95-5.6-.33-7.89,1.57-4.74,6.3-6.23,8.76-6.5C184.91,96.56,184.56,99.47,185.68,101.66Zm11.86,23-.22,0v0l-.28,0-.28,0v0l-.23,0c-9-.51-11.48-9.28-11.94-11.75,3.54.42,8-.63,7.6-5.29-.47-5.43,1-6.22,1.42-7.15a10.78,10.78,0,0,0,3.15.89v0l.28,0,.28,0v0a10.73,10.73,0,0,0,3.14-.89c.46.93,1.89,1.72,1.42,7.15-.4,4.66,4.06,5.71,7.61,5.29C209,115.38,206.55,124.15,197.54,124.66Zm39,7.36a49.72,49.72,0,0,1-26.75-15.61,20.43,20.43,0,0,0,.8-3.71l.08-.88-.73-.07c-1.49,0-6.62-.35-6.3-5.88a7.66,7.66,0,0,0-2-6.17l-.38-.58-.6.35a6.72,6.72,0,0,1-7.12,0l-.6-.35-.38.58a7.68,7.68,0,0,0-2,6.17c.32,5.53-4.8,5.88-6.29,5.88l-.74.07.08.88a21.25,21.25,0,0,0,.81,3.72A49.77,49.77,0,0,1,157.59,132c-1.28-.27-2.25-.55-2.83-.73,8.9-6.64,19.75-16.78,25.36-22.29a4.59,4.59,0,0,0,2.95,1.31l.71,0a5.26,5.26,0,0,0,4.3-1.81,5.76,5.76,0,0,0,.87-5.24,15.69,15.69,0,0,0-.94-2.09c-1.24-2.43-1.37-5.32,2.94-8.28,0,.11,0,.23,0,.35a6.39,6.39,0,0,0,12.77,0s0-.07,0-.1c3.94,2.87,3.8,5.67,2.59,8a15.69,15.69,0,0,0-.94,2.09,5.76,5.76,0,0,0,.87,5.24,5.26,5.26,0,0,0,4.3,1.81l.71,0a4.66,4.66,0,0,0,2.85-1.22c5.63,5.53,16.41,15.6,25.26,22.2C238.75,131.47,237.78,131.75,236.5,132ZM205.92,93.47c2.46.27,7.19,1.76,8.76,6.5.62,2.29,1,6-.33,7.89a3.08,3.08,0,0,1-2.7,1.35,3.6,3.6,0,0,1-3.48-1.52,4.43,4.43,0,0,1-.43-4.1,13.56,13.56,0,0,1,.87-1.93C209.73,99.47,209.38,96.56,205.92,93.47Zm33.64,37.75-.14,0c-2.35-2.38-15.61-15.75-24.24-23.61,1.45-2.55,1.08-6.07.45-7.92-2.85-8.38-11.06-7.21-11.15-7.2l-.82.08,0-.19c1.7-.2,9.24-.69,12.54,3.75a30.28,30.28,0,0,1,3.31,5.36c2.11,4.18,4.23,8.11,7.46,9.42a5.18,5.18,0,0,0,1.05.3,50.3,50.3,0,0,1,12,17.49C239.88,129.54,239.74,130.37,239.56,131.22Zm.55-3.64a38.55,38.55,0,0,0-9.47-16.2,27.15,27.15,0,0,0,5.82-.92C237.86,112.48,241.09,118.32,240.11,127.58Zm-9.72-65.84c6.53.48,7.34,1.44,9.72,3.49a22.59,22.59,0,0,0,9.07,4.87c3.78,1.18,6.59,2.71,7.76,5.48,1.8,4.28-.11,9.41-4.36,17.69-6.55,12.78-19.5,17.3-24.72,16-1.69-.44-4.67-4.11-6.7-8.32-2.68-5.54-6.29-8-9.57-9.07a36.68,36.68,0,0,1,16.5,5.71c8.45,5.48,15.45,4.94,15.77,4.95a46.12,46.12,0,0,1-15.42-6.17c-7.6-5-13.9-6.57-24.3-5.54,10.48-3.49,13.14-2.64,27.24-3.24a36.57,36.57,0,0,0,24.38-10.48,39.41,39.41,0,0,1-24.82,9.36c-11.07.27-15.84.36-21.93,1.58a47.29,47.29,0,0,0,10.5-7.58c5.87-5.87,13.18-11.15,21-11.53-6.69-.51-15.84,4.61-22,10.74A44.68,44.68,0,0,1,210.17,86a17.29,17.29,0,0,0,3.63-6.56c.22-.67.42-1.32.63-2C217.46,67.9,219.65,61,230.39,61.74Zm-33.19-23c6.37,3,17.24,11.41,19.55,25.56A21.5,21.5,0,0,0,215,67.52c-2-13.79-10.13-22.36-17.35-25.62l-.45-.2h0l-.45.2c-7.18,3.24-15.26,11.74-17.31,25.4a21.89,21.89,0,0,0-1.76-3.13C180,50.13,190.85,41.79,197.2,38.78Zm-59.6,36.8c1.17-2.77,4-4.3,7.77-5.48a22.61,22.61,0,0,0,9.06-4.87c2.38-2.05,3.19-3,9.72-3.49,10.74-.77,12.93,6.16,16,15.75.21.65.42,1.3.63,2A17.29,17.29,0,0,0,184.37,86,44.68,44.68,0,0,1,176,79.63c-6.13-6.13-15.28-11.25-22-10.74,7.78.38,15.09,5.66,21,11.53A47.29,47.29,0,0,0,185.53,88c-6.09-1.22-10.86-1.31-21.93-1.58a39.41,39.41,0,0,1-24.82-9.36,36.57,36.57,0,0,0,24.38,10.48c14.1.6,16.76-.25,27.24,3.24-10.4-1-16.69.58-24.3,5.54a46.12,46.12,0,0,1-15.42,6.17c.32,0,7.32.53,15.77-4.95A36.68,36.68,0,0,1,183,91.83c-3.28,1-6.89,3.53-9.57,9.07-2,4.21-5,7.88-6.7,8.32-5.22,1.35-18.16-3.17-24.72-16C137.71,85,135.81,79.86,137.6,75.58Zm97.62,109.78c-1.19.91-4.06,6.72-4.06,6.72h-17.1a6.84,6.84,0,0,1-5.34-3.13V146.5a10,10,0,0,1,6.54-3.56c0-.12,0-1.13,0-1.13h-25a10.58,10.58,0,0,0,0,1.13A9.87,9.87,0,0,1,197,146.7v43.52c-.76,2.05-2.4,4.94-5.64,5.49a5.26,5.26,0,0,0,0,1h42.13a54.92,54.92,0,0,1,4.34-11.4A2.49,2.49,0,0,0,235.22,185.36ZM339,141.81v1a2.83,2.83,0,0,1,2.48,2.42v36.51l-31.82-39.37-.39-.53H297.67v1.23s5.16-.15,5.95,3.69l-.21,46.42c.14,2.37-5.69,3-5.69,3v.6h18.15v-.56s-5.36-.82-5.93-3.44V158.56l29.18,38.2H348V145.6c.12-2.64,5.82-3,5.82-3v-.82ZM292.25,223l-3.43-4.47a3.48,3.48,0,0,0,1-.49,4.71,4.71,0,0,0,.61-.47,3.88,3.88,0,0,0,.63-.72,4.41,4.41,0,0,0,.42-3.89,3.39,3.39,0,0,0-.65-1.08,3.65,3.65,0,0,0-.81-.7,3.61,3.61,0,0,0-.75-.35,7.67,7.67,0,0,0-2.59-.39c-.34,0-.75,0-1.22,0l-1,.07v14.24h2v-5.89h.27l4.32,5.81.06.08h2.1l.21,0v-.29l0-.06C293.12,224.17,292.75,223.69,292.25,223Zm-4.06-6.11a3.44,3.44,0,0,1-1.44.3h-.31v-4.85h.5c1.8,0,2.67.74,2.67,2.27h0a2.48,2.48,0,0,1-.45,1.51A2.54,2.54,0,0,1,288.19,216.91Zm6.3-21.3A17.52,17.52,0,0,1,288,189l-19.92-47.19H258.3s-11.91,36-17.18,49.43a7.38,7.38,0,0,1-3.23,4.09,8.46,8.46,0,0,1-2,.55c0,.09,0,.88,0,.88h19.21a8.56,8.56,0,0,0,0-.88,4,4,0,0,1-2.79-1.23c-2.17-2.21-1.14-6.46-1.14-6.46l1.88-7.11H272.6a35.82,35.82,0,0,1,3.3,9.78c.15,2.8-2.47,4.41-3.39,4.89-.19,0-.35.1-.56.13a8.56,8.56,0,0,0,0,.88h23.71a8.56,8.56,0,0,0,0-.88A9.16,9.16,0,0,1,294.49,195.61Zm-40.2-19.42L262.14,151l8.73,25.18Zm-28.68,34.1h-.49L221,220.05l-.59,1.42-1.4,3.34h2.17l.2-.52a.43.43,0,0,0,.05-.15l1.33-3.23h4.86l1.38,3.48.14.42h2.28l-5.8-14.39Zm-2.09,8.82,1.44-3.63c.13-.33.23-.62.33-.87.08.25.18.54.31.87l1.38,3.63Zm-75.72-8.77a7.29,7.29,0,0,0-5.35,2.14,7.2,7.2,0,0,0-2.12,5.28,7.05,7.05,0,0,0,2.09,5.12,6.91,6.91,0,0,0,5.13,2.15,7.07,7.07,0,0,0,5.27-2.19,7.29,7.29,0,0,0,2.07-5.23v0a7.13,7.13,0,0,0-2-5.15A6.77,6.77,0,0,0,147.8,210.34Zm4.92,7.34a5.43,5.43,0,0,1-1.44,3.83,5,5,0,0,1-7.3,0,5.36,5.36,0,0,1-1.47-3.8,5.44,5.44,0,0,1,1.45-3.84,4.82,4.82,0,0,1,3.64-1.57,4.87,4.87,0,0,1,3.66,1.56,5.4,5.4,0,0,1,1.46,3.83Zm-23.28-1.08h-6.57v-6.08H120.8v14.29h2.07v-6.35h6.57v6.35h2.08V210.52h-2.08ZM125,186.2c0-3.41.06-7.82.06-7.82s-.58-2.9,5.05-12.83,12.77-20.34,12.8-20.38a9.86,9.86,0,0,1,5.15-2.3c0-.11,0-1.06,0-1.06H124.58s0,.95,0,1.06a9.6,9.6,0,0,1,5.83,3s.49,1.51-1.91,7-7.45,15.73-7.45,15.73l-13.17-20.28a9.27,9.27,0,0,1-.9-2.92,9.79,9.79,0,0,1,5.41-2.54,9.31,9.31,0,0,0,0-1.06H88.88a9.31,9.31,0,0,0,0,1.06A10.47,10.47,0,0,1,92.31,144c.36.22,2.24,1.73,7.27,10.36,5.65,9.69,13.73,22.29,14.1,24.59a44.88,44.88,0,0,1,0,7.26s-.25,7-6.58,9.28a12.67,12.67,0,0,1,0,1.28h24.7v-1.37S125.54,192.72,125,186.2Zm-36-1.69c-1.27,1-4.36,7.22-4.36,7.22H66.29a7.36,7.36,0,0,1-5.75-3.36V146.85a10.8,10.8,0,0,1,7-3.83c0-.12,0-1.21,0-1.21H40.73s0,1.09,0,1.21a10.69,10.69,0,0,1,7.2,4v42.65c-.83,2.21-2.59,5.32-6.07,5.91a5.33,5.33,0,0,0,0,1.13H87.15a59.32,59.32,0,0,1,4.67-12.25A2.67,2.67,0,0,0,89,184.51Zm86.45-17.95c-10.22-6.68-15.17-10.14-12.95-15.7s11.06-5,16.94.85l1.7-6.47s-15.5-8.5-25.11-.92c-12.32,9.72-4,23,9,30.29,5.61,3.13,8.34,7.59,7.39,11-1,3.61-6,6.05-11.57,5-6.54-1.31-8.44-5.56-8.44-5.56l-1.31-.2s-1.5,8.37-2.68,10.47c.06.26,1,.65,1,.65a6.06,6.06,0,0,1,4.64,0c2.49,1,16.68,4.46,24.79-2.22C188.57,185.73,187,174.08,175.48,166.56Zm13.79,43.78a7.28,7.28,0,0,0-5.34,2.14,7.21,7.21,0,0,0-2.13,5.28,7.05,7.05,0,0,0,2.09,5.12A6.93,6.93,0,0,0,189,225a7.08,7.08,0,0,0,5.28-2.19,7.28,7.28,0,0,0,2.06-5.23v0a7.16,7.16,0,0,0-2-5.15A6.79,6.79,0,0,0,189.27,210.34Zm4.93,7.34a5.47,5.47,0,0,1-1.44,3.83,5,5,0,0,1-7.3,0,5.7,5.7,0,0,1,0-7.64,5,5,0,0,1,7.29,0,5.41,5.41,0,0,1,1.47,3.83Zm13.06-7.16h-2.07v14.29H212v-1.89h-4.78Zm-35.08-.13-.6,0c-.26,0-.54,0-.82,0a8.12,8.12,0,0,0-5.6,2,6.86,6.86,0,0,0-2.23,5.32v0a7.07,7.07,0,0,0,2.25,5.46,7.45,7.45,0,0,0,5.24,1.94,11.85,11.85,0,0,0,1.68-.11,7.42,7.42,0,0,0,1.25-.3l.15,0-.09-1.94-.66.21a2.15,2.15,0,0,1-.38.1,9,9,0,0,1-1.74.15,5.43,5.43,0,0,1-3.93-1.49,5.28,5.28,0,0,1-1.55-3.93,5.18,5.18,0,0,1,1.53-4,5.81,5.81,0,0,1,4.15-1.45,8.46,8.46,0,0,1,1.61.14,6.2,6.2,0,0,1,.74.18h.32l.07-1.91-.16,0C173.08,210.53,172.67,210.46,172.18,210.39Z"/></svg>