<svg id="Layer_1" data-name="Layer 1" xmlns="http://www.w3.org/2000/svg" viewBox="0 0 400.04 279.43"><defs><style>.cls-1{fill:#bfa4a0;}.cls-2{fill:#381808;}</style></defs><rect class="cls-1" x="-2.5" y="1.37" width="402.42" height="279.09"/><path class="cls-2" d="M197.46,76.64c3,0,3-1.52,3-2.2s-.48-1.84-2.62-1.92a4.75,4.75,0,0,0-2.91.52,1.94,1.94,0,0,0-.7,1.86C194.36,75.49,194.48,76.6,197.46,76.64Zm0-5.78c2.67,0,2.66-1.3,2.69-1.88s-.42-1.57-2.34-1.64a4.37,4.37,0,0,0-2.61.45,1.59,1.59,0,0,0-.63,1.58C194.67,69.88,194.77,70.83,197.45,70.86Zm-8.18,2.83c2.21,0,2.3-.86,2.39-1.3a1.44,1.44,0,0,0-.52-1.38,3.58,3.58,0,0,0-2.16-.39c-1.59.06-2,.93-1.95,1.43S187.05,73.72,189.27,73.69Zm8.24-9c2.23,0,2.22-1.14,2.25-1.64s-.36-1.38-2-1.44a3.49,3.49,0,0,0-2.16.39,1.43,1.43,0,0,0-.53,1.39C195.2,63.85,195.29,64.68,197.51,64.71Zm5.9,6.3a1.45,1.45,0,0,0-.53,1.38c.09.44.18,1.27,2.4,1.3s2.2-1.14,2.23-1.64-.35-1.37-1.95-1.43A3.53,3.53,0,0,0,203.41,71Zm2.35,5.45a3.72,3.72,0,0,0-2.31.42,1.5,1.5,0,0,0-.56,1.47c.09.48.18,1.36,2.56,1.39s2.36-1.21,2.39-1.75S207.46,76.52,205.76,76.46Zm-8.08,1.84c-2.4-.09-3.25.59-3.25.59a2.15,2.15,0,0,0-.79,2.07c.14.66.27,1.9,3.61,2s3.31-1.71,3.36-2.46S200.07,78.39,197.68,78.3Zm.09,6.58a5.07,5.07,0,0,0-3.1.56,2.06,2.06,0,0,0-.75,2c.13.64.25,1.82,3.44,1.87s3.17-1.63,3.21-2.35S200.06,85,197.77,84.88Zm-5.22-19.31a3.07,3.07,0,0,0-1.94-.35c-1.43,0-1.77.83-1.75,1.28s0,1.5,2,1.47,2.07-.77,2.15-1.16A1.28,1.28,0,0,0,192.55,65.57ZM206.82,84c0-.51-.37-1.41-2-1.47a3.57,3.57,0,0,0-2.21.4,1.47,1.47,0,0,0-.54,1.42c.09.45.18,1.3,2.46,1.33S206.79,84.5,206.82,84Zm-15.16-5.63a1.54,1.54,0,0,0-.56-1.47,3.75,3.75,0,0,0-2.31-.42c-1.71.06-2.12,1-2.09,1.53s0,1.78,2.4,1.75S191.56,78.83,191.66,78.35Zm14-11.85c0-.45-.32-1.23-1.75-1.28a3.07,3.07,0,0,0-1.94.35,1.31,1.31,0,0,0-.47,1.24c.08.39.16,1.13,2.15,1.16S205.66,67,205.68,66.5ZM191.94,82.91a3.59,3.59,0,0,0-2.22-.4c-1.63.06-2,1-2,1.47s0,1.71,2.29,1.68,2.36-.88,2.45-1.33A1.46,1.46,0,0,0,191.94,82.91Zm-57.37,96.66c0-3,.05-6.8.05-6.8s-.5-2.52,4.39-11.15,11.1-17.68,11.12-17.71a8.63,8.63,0,0,1,4.47-2c0-.09,0-.92,0-.92H134.17s0,.83,0,.92a8.37,8.37,0,0,1,5.06,2.57s.43,1.32-1.66,6.13-6.47,13.67-6.47,13.67l-11.44-17.63a7.93,7.93,0,0,1-.79-2.53,8.56,8.56,0,0,1,4.71-2.21c0-.09,0-.92,0-.92H103.14s0,.83,0,.92a9.55,9.55,0,0,1,3,1c.3.2,1.94,1.51,6.31,9,4.92,8.42,11.93,19.37,12.25,21.37a38,38,0,0,1,0,6.31s-.21,6.08-5.72,8.06a9.8,9.8,0,0,1,0,1.11H140.4v-1.19S135,185.23,134.57,179.57Zm114.6,33.55H251V200.7h-1.8ZM233,202.31h3.59v10.81h1.81V202.31h3.58V200.7h-9Zm-2.65-23.47c-1,.78-3.53,5.83-3.53,5.83H211.93a5.93,5.93,0,0,1-4.65-2.71v-36.9A8.73,8.73,0,0,1,213,142a8,8,0,0,0,0-1H191.27s0,.88,0,1a8.65,8.65,0,0,1,5.82,3.27v37.81c-.67,1.79-2.1,4.3-4.91,4.78a4.61,4.61,0,0,0,0,.91h36.61a48.07,48.07,0,0,1,3.78-9.9A2.16,2.16,0,0,0,230.31,178.84ZM222,200.5h-.43L218,209l-.51,1.23-1.22,2.91h1.89l.17-.45.05-.13,1.15-2.81h4.22l1.2,3,.12.37h2l-5-12.51Zm-1.82,7.67,1.25-3.16c.12-.29.21-.54.29-.76.07.22.16.47.27.76l1.2,3.16Zm41-.58h3.72V206h-3.72v-3.65h4V200.7h-5.82v12.42h6v-1.65h-4.19Zm18.76,4-3-3.88a3,3,0,0,0,.84-.43c.18-.12.36-.26.53-.4a4.07,4.07,0,0,0,.55-.63,3.66,3.66,0,0,0,.59-2.06,3.57,3.57,0,0,0-.23-1.33,3,3,0,0,0-.57-.94,3.41,3.41,0,0,0-.7-.6,3.51,3.51,0,0,0-.65-.31,6.82,6.82,0,0,0-2.26-.33c-.29,0-.64,0-1.06,0l-.86.05v12.38h1.75V208h.24l3.75,5.05.05.07h1.83l.18,0v-.25l-.05-.05C280.63,212.56,280.31,212.14,279.87,211.56Zm-3.53-5.31a3,3,0,0,1-1.24.26h-.28v-4.22h.44c1.56,0,2.32.64,2.32,2h0a2.19,2.19,0,0,1-.39,1.32A2.31,2.31,0,0,1,276.34,206.25ZM320.53,141v.85a2.45,2.45,0,0,1,2.15,2.1v31.73L295,141.45l-.33-.46H284.58v1.07s4.48-.13,5.17,3.2l-.18,40.34c.13,2.06-4.95,2.58-4.95,2.58v.53H300.4v-.49s-4.66-.71-5.15-3v-29.7l25.35,33.2h7.73V144.28c.1-2.29,5.06-2.58,5.06-2.58V141Zm-38.71,46.75A15.24,15.24,0,0,1,276.2,182l-17.3-41h-8.53S240,172.3,235.44,183.94a6.37,6.37,0,0,1-2.8,3.55,7.27,7.27,0,0,1-1.72.49,6.38,6.38,0,0,0,0,.76h16.69s0-.68,0-.76a3.52,3.52,0,0,1-2.43-1.07c-1.89-1.92-1-5.62-1-5.62l1.62-6.18h17a31.35,31.35,0,0,1,2.87,8.51c.12,2.43-2.15,3.83-2.95,4.25-.17,0-.31.08-.49.11,0,.08,0,.76,0,.76h20.61s0-.68,0-.76A8.52,8.52,0,0,1,281.82,187.74Zm-34.94-16.87L253.7,149l7.59,21.88ZM162,113.36c-1.28,1.42-6.37,7.93-3.78,19.64l.08.33.32.13a44.47,44.47,0,0,0,10,1.23,21.63,21.63,0,0,0,18.14-9.4c-7.94,8.45-17.71,8.29-23,7.36,11.21-1.81,18.65-7.38,22.78-12.42,1.35,3.47,4.22,7.7,10.18,8h.07l.33,0,.34,0h.06c6-.33,8.84-4.57,10.19-8,4.13,5,11.57,10.62,22.79,12.43-5.33.93-15.1,1.09-23-7.36a21.62,21.62,0,0,0,18.14,9.4,44.58,44.58,0,0,0,10-1.23l.32-.13L236,133c2.53-11.43-2.26-17.91-3.69-19.54a24.66,24.66,0,0,0,14.76-13c3.86-7.68,5.24-14.3,3.5-18.44-1.16-2.77-3.86-3.35-7.53-4.5-4-1.23-5.71-3.22-7.39-4.68-2.14-1.86-4.17-3.61-10.26-4-4.72-.34-7.74,1-9.89,3.26a31.65,31.65,0,0,0-17.72-23l-.55-.23-.54.23A31.66,31.66,0,0,0,179,72c-2.14-2.23-5.15-3.5-9.8-3.16-6.09.44-8.12,2.19-10.26,4-1.69,1.46-3.43,3.45-7.39,4.68-3.67,1.15-6.37,1.73-7.53,4.5-1.74,4.14-.36,10.76,3.5,18.44A24.7,24.7,0,0,0,162,113.36Zm.94.29a22.54,22.54,0,0,0,5,.87,33.62,33.62,0,0,0-8.26,14.1C158.85,120.4,161.78,115.31,163,113.65Zm-2.75,18.13c-.16-.73-.28-1.45-.38-2.15A43.65,43.65,0,0,1,170.2,114.5a5.69,5.69,0,0,0,1.35-.32c2.81-1.15,4.65-4.56,6.48-8.2a26.46,26.46,0,0,1,2.88-4.65c2.92-3.93,9.66-3.42,11-3.25a1.23,1.23,0,0,0,0,.19h0l-1-.1a9,9,0,0,0-9.68,6.25,9.29,9.29,0,0,0,.33,6.79h0c-7.5,6.82-19.13,18.54-21.19,20.62Zm40.86-37.1a5.53,5.53,0,0,0-7.39,0c-1.23-.32-6.29-2.1-8.71-9.62l-.54-1.7c-.62-2-1.23-3.86-1.92-5.61,1.44-10.77,7.13-19.21,14.77-22.61C205,58.58,210.69,67.1,212.09,78c-.66,1.69-1.24,3.5-1.84,5.39l-.54,1.7C207.33,92.45,202.4,94.31,201.06,94.68Zm0,4.13a3.71,3.71,0,1,1-3.71-3.71A3.71,3.71,0,0,1,201.08,98.81Zm-13.81,7.29a12.69,12.69,0,0,1,.75,1.67,3.9,3.9,0,0,1-.37,3.57,3.14,3.14,0,0,1-3,1.32,2.66,2.66,0,0,1-2.34-1.17c-1.16-1.66-.83-4.87-.29-6.86,1.36-4.12,5.47-5.41,7.61-5.65C186.6,101.67,186.29,104.2,187.27,106.1Zm10.3,20-.2,0v0l-.24,0-.24,0v0l-.2,0c-7.82-.45-10-8.06-10.37-10.21,3.07.36,7-.55,6.6-4.6-.41-4.72.84-5.41,1.23-6.22a9.46,9.46,0,0,0,2.74.78v0l.24,0,.24,0v0a9.37,9.37,0,0,0,2.74-.78c.39.81,1.64,1.5,1.23,6.22-.35,4,3.53,5,6.61,4.6C207.55,118,205.4,125.64,197.57,126.09Zm33.85,6.39a43.3,43.3,0,0,1-23.24-13.56,18.91,18.91,0,0,0,.7-3.22l.06-.77-.63-.06c-1.3,0-5.75-.31-5.47-5.11a6.66,6.66,0,0,0-1.76-5.36l-.33-.51-.53.31a5.87,5.87,0,0,1-6.18,0l-.52-.31-.33.51a6.66,6.66,0,0,0-1.76,5.36c.28,4.8-4.18,5.11-5.47,5.11l-.64.06.07.77a18,18,0,0,0,.7,3.23,43.26,43.26,0,0,1-23.24,13.55c-1.11-.23-1.95-.47-2.46-.63a248.27,248.27,0,0,0,22-19.37,4,4,0,0,0,2.57,1.14l.62,0a4.58,4.58,0,0,0,3.73-1.57,5,5,0,0,0,.75-4.55,11.86,11.86,0,0,0-.81-1.82c-1.08-2.11-1.19-4.62,2.56-7.2,0,.1,0,.21,0,.31a5.55,5.55,0,1,0,11.09,0s0-.06,0-.09c3.43,2.5,3.3,4.93,2.26,7a11.91,11.91,0,0,0-.82,1.82,5,5,0,0,0,.75,4.55,4.6,4.6,0,0,0,3.74,1.57l.62,0a4.07,4.07,0,0,0,2.47-1.07,245.38,245.38,0,0,0,22,19.3C233.38,132,232.53,132.25,231.42,132.48ZM204.85,99c2.14.24,6.25,1.53,7.61,5.65.55,2,.87,5.2-.29,6.86a2.66,2.66,0,0,1-2.34,1.17,3.12,3.12,0,0,1-3-1.32,3.87,3.87,0,0,1-.38-3.57,11.6,11.6,0,0,1,.76-1.67C208.16,104.2,207.86,101.67,204.85,99Zm29.23,32.8-.11,0c-2.05-2.07-13.57-13.69-21.07-20.52a9.26,9.26,0,0,0,.39-6.88,9,9,0,0,0-9.69-6.25l-.71.07,0-.17c1.48-.18,8-.6,10.9,3.26a26.46,26.46,0,0,1,2.88,4.65c1.83,3.64,3.67,7,6.48,8.2a6,6,0,0,0,.89.25,43.79,43.79,0,0,1,10.45,15.2C234.36,130.33,234.24,131.05,234.08,131.78Zm.49-3.16a33.62,33.62,0,0,0-8.24-14.08,22.83,22.83,0,0,0,5.06-.8C232.6,115.49,235.42,120.56,234.57,128.62Zm-8.45-57.21c5.67.41,6.38,1.25,8.44,3a19.71,19.71,0,0,0,7.88,4.22c3.29,1,5.73,2.36,6.75,4.77,1.56,3.72-.1,8.18-3.79,15.37-5.7,11.1-17,15-21.48,13.86-1.48-.38-4.06-3.57-5.83-7.23-2.32-4.82-5.46-7-8.31-7.88a31.81,31.81,0,0,1,14.34,5c7.34,4.76,13.43,4.29,13.7,4.3a39.89,39.89,0,0,1-13.4-5.37c-6.61-4.3-12.07-5.7-21.11-4.81,9.1-3,11.41-2.29,23.66-2.81a31.81,31.81,0,0,0,21.2-9.11,34.3,34.3,0,0,1-21.58,8.13c-9.61.24-13.76.32-19.06,1.38a40.77,40.77,0,0,0,9.13-6.59c5.1-5.1,11.46-9.69,18.22-10-5.81-.45-13.77,4-19.09,9.33a39.31,39.31,0,0,1-7.24,5.55,15.1,15.1,0,0,0,3.15-5.71c.19-.57.37-1.14.54-1.7C214.88,76.76,216.79,70.74,226.12,71.41ZM197.27,51.46c5.54,2.62,15,9.91,17,22.21a18.29,18.29,0,0,0-1.52,2.77c-1.73-12-8.8-19.44-15.08-22.27l-.39-.17-.39.17c-6.24,2.82-13.26,10.2-15,22.07a18.14,18.14,0,0,0-1.53-2.71C182.37,61.32,191.76,54.07,197.27,51.46Zm-51.79,32c1-2.41,3.46-3.74,6.75-4.77a19.71,19.71,0,0,0,7.88-4.22c2.06-1.79,2.77-2.63,8.44-3,9.33-.67,11.24,5.35,13.87,13.69.18.56.36,1.13.55,1.7a15.1,15.1,0,0,0,3.15,5.71A39.31,39.31,0,0,1,178.88,87c-5.32-5.33-13.28-9.78-19.09-9.33,6.76.32,13.12,4.91,18.22,10a40.55,40.55,0,0,0,9.13,6.59c-5.3-1.06-9.45-1.14-19.06-1.38a34.3,34.3,0,0,1-21.58-8.13,31.81,31.81,0,0,0,21.2,9.11c12.25.52,14.56-.22,23.66,2.81-9-.89-14.5.51-21.11,4.81a39.89,39.89,0,0,1-13.4,5.37c.27,0,6.36.46,13.7-4.3a31.81,31.81,0,0,1,14.34-5c-2.85.9-6,3.06-8.31,7.88-1.77,3.66-4.35,6.85-5.83,7.23-4.53,1.17-15.78-2.76-21.48-13.86C145.58,91.62,143.92,87.16,145.48,83.44ZM121.84,200.59l-.52,0c-.23,0-.47,0-.72,0a7,7,0,0,0-4.86,1.69,6,6,0,0,0-1.94,4.63h0a6.16,6.16,0,0,0,2,4.75,6.46,6.46,0,0,0,4.55,1.68,10.14,10.14,0,0,0,1.46-.1,5.78,5.78,0,0,0,1.08-.25l.13-.05-.08-1.69-.57.19-.33.09a8.33,8.33,0,0,1-1.51.13,4.72,4.72,0,0,1-3.41-1.3,4.59,4.59,0,0,1-1.35-3.42,4.53,4.53,0,0,1,1.33-3.43,5.06,5.06,0,0,1,3.61-1.25,7.12,7.12,0,0,1,1.39.11c.27.06.49.11.65.16H123l.06-1.66-.14,0A9.22,9.22,0,0,0,121.84,200.59ZM138.39,206h-5.71V200.7h-1.8v12.42h1.8V207.6h5.71v5.52h1.81V200.7h-1.81Zm16-5.44a6.33,6.33,0,0,0-4.64,1.86,6.25,6.25,0,0,0-1.85,4.59,6.11,6.11,0,0,0,1.82,4.45,6,6,0,0,0,4.45,1.87,6.12,6.12,0,0,0,4.59-1.91,6.31,6.31,0,0,0,1.79-4.54h0a6.21,6.21,0,0,0-1.75-4.49A5.9,5.9,0,0,0,154.34,200.54Zm4.28,6.38a4.72,4.72,0,0,1-1.25,3.33,4.34,4.34,0,0,1-6.34,0,4.65,4.65,0,0,1-1.28-3.3,4.72,4.72,0,0,1,1.26-3.34,4.19,4.19,0,0,1,3.16-1.36,4.25,4.25,0,0,1,3.18,1.35,4.73,4.73,0,0,1,1.27,3.34Zm-55.34-28.83c-1.11.85-3.8,6.28-3.8,6.28h-16a6.38,6.38,0,0,1-5-2.92V145.37A9.35,9.35,0,0,1,84.63,142c0-.1,0-1,0-1H61.3a9.15,9.15,0,0,0,0,1,9.26,9.26,0,0,1,6.25,3.52v37.07c-.71,1.92-2.24,4.62-5.27,5.13a4.58,4.58,0,0,0,0,1h39.36a51.82,51.82,0,0,1,4.06-10.65A2.34,2.34,0,0,0,103.28,178.09Zm87.11,22.45a6.35,6.35,0,0,0-4.65,1.86,6.25,6.25,0,0,0-1.85,4.59,6.11,6.11,0,0,0,1.82,4.45,6,6,0,0,0,4.46,1.87,6.11,6.11,0,0,0,4.58-1.91,6.32,6.32,0,0,0,1.8-4.54h0a6.25,6.25,0,0,0-1.75-4.49A5.93,5.93,0,0,0,190.39,200.54Zm4.27,6.38a4.72,4.72,0,0,1-1.25,3.33,4.34,4.34,0,0,1-6.34,0,4.65,4.65,0,0,1-1.28-3.3,4.72,4.72,0,0,1,1.26-3.34,4.39,4.39,0,0,1,6.34,0,4.69,4.69,0,0,1,1.27,3.34Zm-19.13-6.33-.52,0c-.23,0-.47,0-.71,0a7.07,7.07,0,0,0-4.87,1.69,6,6,0,0,0-1.94,4.63h0a6.16,6.16,0,0,0,2,4.75,6.46,6.46,0,0,0,4.55,1.68,10.37,10.37,0,0,0,1.47-.1,6.18,6.18,0,0,0,1.08-.25l.13-.05-.08-1.69-.58.19a2,2,0,0,1-.33.09,8.33,8.33,0,0,1-1.51.13,4.73,4.73,0,0,1-3.41-1.3,4.63,4.63,0,0,1-1.35-3.42,4.53,4.53,0,0,1,1.33-3.43,5.06,5.06,0,0,1,3.61-1.25,7.29,7.29,0,0,1,1.4.11l.64.16h.28l.06-1.66-.14,0A9.22,9.22,0,0,0,175.53,200.59Zm30.48.11h-1.8v12.42h6v-1.65H206ZM178.4,162.5c-8.88-5.8-13.19-8.81-11.25-13.64s9.6-4.32,14.72.74l1.48-5.63s-13.47-7.39-21.83-.8c-10.7,8.45-3.44,20,7.84,26.32,4.88,2.73,7.25,6.6,6.43,9.55-.88,3.14-5.26,5.26-10.06,4.32-5.69-1.14-7.34-4.83-7.34-4.83l-1.13-.18s-1.31,7.28-2.33,9.1c0,.23.85.57.85.57a5.22,5.22,0,0,1,4,0c2.16.91,14.5,3.88,21.55-1.93C189.77,179.15,188.41,169,178.4,162.5Z"/></svg>